/* XPM */
static char *f0c656ac8ebb4969c4daea2c2c49c956HxwLVaVJI7vCeQbh[] = {
/* columns rows colors chars-per-pixel */
"44 50 231 2 ",
"   c None",
".  c #170C0B",
"X  c #170C0C",
"o  c #180D0C",
"O  c #180E0D",
"+  c #190E0E",
"@  c #190F0E",
"#  c #1A0F0E",
"$  c #1A100F",
"%  c #1B100F",
"&  c #1B1110",
"*  c #1D1312",
"=  c #1E1413",
"-  c #211818",
";  c #221818",
":  c #221919",
">  c #241B1A",
",  c #251C1C",
"<  c #292020",
"1  c #2A2121",
"2  c #2A2222",
"3  c #2B2323",
"4  c #2D2424",
"5  c #2F2525",
"6  c #312929",
"7  c #322929",
"8  c #332C2C",
"9  c #372F2F",
"0  c #373031",
"q  c #373131",
"w  c #373132",
"e  c #383031",
"r  c #383233",
"t  c #393334",
"y  c #3A3334",
"u  c #3C3737",
"i  c #3E3738",
"p  c #3E3839",
"a  c #3D383A",
"s  c #40393A",
"d  c #423A3C",
"f  c #433C3D",
"g  c #413D3F",
"h  c #433D3E",
"j  c #443E3F",
"k  c #453F41",
"l  c #444042",
"z  c #474142",
"x  c #464244",
"c  c #484244",
"v  c #494445",
"b  c #4C4748",
"n  c #4B484A",
"m  c #4F4A4C",
"M  c #514C4E",
"N  c #514E50",
"B  c #524E50",
"V  c #545255",
"C  c #575254",
"Z  c #575355",
"A  c #585456",
"S  c #595557",
"D  c #59585B",
"F  c #5A595C",
"G  c #5C5B5E",
"H  c #5E5B5E",
"J  c #5F5C5F",
"K  c #5C5D60",
"L  c #5F5F62",
"P  c #615D60",
"I  c #606063",
"U  c #616063",
"Y  c #646164",
"T  c #656568",
"R  c #676569",
"E  c #68666A",
"W  c #69686C",
"Q  c #6A696D",
"!  c #6E6F73",
"~  c #6F7175",
"^  c #73757A",
"/  c #73767A",
"(  c #757478",
")  c #75787D",
"_  c #76787D",
"`  c #7B7B80",
"'  c #7B7C81",
"]  c #7D7C80",
"[  c #7C7C81",
"{  c #7D7E82",
"}  c #828388",
"|  c #828389",
" . c #808489",
".. c #828489",
"X. c #838489",
"o. c #85858A",
"O. c #81868C",
"+. c #82878D",
"@. c #85878C",
"#. c #82898E",
"$. c #84898D",
"%. c #84898F",
"&. c #878D93",
"*. c #878E93",
"=. c #8A8C91",
"-. c #898F96",
";. c #8B9197",
":. c #8E9197",
">. c #909298",
",. c #909399",
"<. c #92949A",
"1. c #91989D",
"2. c #95999F",
"3. c #949CA2",
"4. c #979FA7",
"5. c #989BA2",
"6. c #9A9EA4",
"7. c #9DA1A7",
"8. c #9EA2A8",
"9. c #9FA3AA",
"0. c #9FA4AB",
"q. c #9FA5AD",
"w. c #9EA7AD",
"e. c #A0A4AB",
"r. c #A0A5AB",
"t. c #A0A5AC",
"y. c #A1A5AC",
"u. c #A0A5AD",
"i. c #A1A5AD",
"p. c #A1A6AD",
"a. c #A2A8AF",
"s. c #A3A8AF",
"d. c #A3A9B0",
"f. c #A2ABB3",
"g. c #A4A9B1",
"h. c #A4AAB1",
"j. c #A5ABB3",
"k. c #A6ABB3",
"l. c #A5ACB3",
"z. c #A3ADB4",
"x. c #A6ADB4",
"c. c #A7AEB6",
"v. c #A8AFB6",
"b. c #A8AFB7",
"n. c #A9B1B9",
"m. c #ABB1B9",
"M. c #A9B3BB",
"N. c #ABB2BA",
"B. c #ABB3BA",
"V. c #ABB3BB",
"C. c #ADB4BC",
"Z. c #ADB5BE",
"A. c #AEB7BF",
"S. c #AEB9C1",
"D. c #AFBBC3",
"F. c #B0B8C0",
"G. c #B1BAC2",
"H. c #B2BBC3",
"J. c #B0BCC5",
"K. c #B4BEC6",
"L. c #B5BFC8",
"P. c #B6C0C8",
"I. c #B6C0C9",
"U. c #B6C1CB",
"Y. c #B7C2CB",
"T. c #BAC5CE",
"R. c #BAC5CF",
"E. c #B9C6CF",
"W. c #B9C7D0",
"Q. c #BBC7D1",
"!. c #BBC8D1",
"~. c #BCC8D1",
"^. c #BCC9D2",
"/. c #BDC9D2",
"(. c #BDCBD4",
"). c #BECBD4",
"_. c #C1CFD9",
"`. c #C1D0DA",
"'. c #C3D1DB",
"]. c #C3D2DB",
"[. c #C5D3DD",
"{. c #C6D4DE",
"}. c #C6D6DF",
"|. c #C7D6E0",
" X c #C8D6E1",
".X c #C9D8E2",
"XX c #C9D9E3",
"oX c #CBDAE5",
"OX c #CBDBE5",
"+X c #CBDBE6",
"@X c #CBDCE6",
"#X c #CCDCE6",
"$X c #CCDCE7",
"%X c #CDDDE7",
"&X c #CDDDE8",
"*X c #CDDEE8",
"=X c #CEDEE9",
"-X c #CEDFE9",
";X c #CEDFEA",
":X c #CEE0EA",
">X c #CFE0EA",
",X c #CFE0EB",
"<X c #CFE1EB",
"1X c #D0E0EB",
"2X c #D0E1EB",
"3X c #D0E1EC",
"4X c #D1E2ED",
"5X c #D3E3ED",
"6X c #D4E3EC",
"7X c #D4E3ED",
"8X c #D5E4ED",
"9X c #D4E4EE",
"0X c #D8E6EF",
"qX c #DCEAF1",
"wX c #DFEBF2",
"eX c #E2ECF2",
"rX c #EBF2F6",
"tX c #EEF4F6",
"yX c #EEF4F7",
"uX c #F0F6F8",
"iX c #F2F7F9",
"pX c #F3F7F9",
"aX c #F3F8FA",
"sX c #F7FAFB",
"dX c #FBFCFD",
"fX c #FDFEFD",
"gX c #FEFEFD",
"hX c #FDFEFE",
"jX c #FEFEFE",
"kX c #FEFFFE",
"lX c white",
/* pixels */
"                                          . . . . . .                                   ",
"                                    . . . X . . . . . . . .                             ",
"                                . . . . : n ~ $.-. .T r O . . .                         ",
"                            . . . . g 1.|.3X3X3X3X3X,X2XJ.U $ . .                       ",
"                          . . . y w.,X3X3X3X3X3X3X3X3X3X,X3XD.a O . .                   ",
"                        . . & _ OX3X3X3X3X3X3X3X3X3X3X3X3X3X2XXXK . . .                 ",
"                      . . 3 z.3X2X3X3X3X3X3X3X3X3X3X3X3X3X3X3X1X=X! . .                 ",
"                    . . w E.,X,X3X3X3X3X3X3X3X3X3X3X3X3X3X3X3X3X2X2XU . .               ",
"                  . . a `.,X3X3X3X3X3X3X3X3X3X3X3X3X3X3X3X3X3X3X3X1X+Xz . .             ",
"                . . t _.3X3X3X3X3X3X3X3X3X3X3X3X3X3X3X3X3X3X3X3X3X3X3XQ.: . .           ",
"              . . 3 !.3X3X,X3X3X3X3X3X3X3X3X3X3X3X3X3X3X3X3X3X3X3X3X3X3X' . .           ",
"            . . * M.,X3X3X3X3X3X7XrXiXeX3X3X3X3X3X3X3X3X3X3X3X3X3X3X3X3XM.r . .         ",
"            . . $.3X3X3X3X3X3X7XsXlXlXlXqX2X3X3X3X3X3X3X3X3X3X3X3X3X3X3XM.| O .         ",
"          . . N =X2X3X3X3X3X3XrXlXlXlXlXyX3X3X3X3X3X3X3X3X3X3X3X3X3X3X3Xb.y.u . .       ",
"        . . > ^.=X3X3X3X3X3X3XdXsXlXlXlXiX3X3X3X3X3X3X3X3X3X3X3X3X3X2X1Xs.y.' . .       ",
"        . . O.2X3X3X3X3X3X3X9XlXlXlXlXlXyX2X3X3X3X3X3X3X3X3X3X3X3X3X2X+Xf.y.y.4 . .     ",
"      . . r +X3X3X3X3X3X3X3X3XlXlXlXfXlXeX;X3X3X3X3X3X3X3X3X3X3X3X3X3X Xy.y.y.J . .     ",
"      . . 3.1X3X3X3X3X3X3X3X3XiXlXlXfXuX3X3X3X3X3X3X3X3X3X3X3X3X3X3X3X{.a.y.y.:.O .     ",
"    . . 0 =X3X3X3X3X3X3X3X3X3X0XsXlXuX6X3X3X3X3X3X3X3X3X3X3X3X3X3X3X3X^.y.y.q.w.6 . .   ",
"    . . &.3X3X3X3X3X3X3X3X3X3X3X2X3X2X1X3X3X3X3X3X3X3X3X3X3X3X3X3X3X3XK.y.a.y.a.S . .   ",
"    . : }.3X3X3X3X3X3X3X3X3X3X3X2X2X3X3X3X3X3X3X3X3X3X3X3X3X3X3X3X3X3XZ.y.y.y.y.{ . .   ",
"  . . G 3X3X3X3X3X3X3X3X3X3X3X3X3X2X3X3X3X3X3X3X3X3X3X3X3X3X3X3X3X3X<Xh.y.w.a.a.2.O .   ",
"  . . 4.3X3X3X3X3X3X3X3X3X3X3X3X3X3X3X3X3X3X3X3X3X3X3X3X3X3X3X3X3X3X|.y.a.y.q.y.y.3 .   ",
"  . - `.3X3X3X3X3X3X3X3X3X3X3X3X3X3X3X3X3X3X3X3X3X3X3X3X3X3X3X3X3X3X!.y.a.y.a.y.y.d . . ",
"  . u 2X3X3X3X3X3X3X3X3X3X3X3X3X3X3X3X3X3X3X3X3X3X3X3X3X3X3X3X3X3X,XH.y.y.y.a.y.y.M . . ",
". . K 3X3X3X3X3X3X3X3X3X3X3X3X3X3X3X3X3X3X3X3X3X3X3X3X3X3X3X3X3X3X=Xa.y.y.a.y.q.y.G . . ",
". . _ 3X3X3X3X3X3X3X3X3X3X3X3X3X3X3X3X3X3X3X3X3X3X3X3X3X3X3X3X3X<X`.y.y.y.y.a.a.y.E . . ",
". . #.<X3X3X3X3X3X3X3X3X3X3X3X3X3X3X3X3X3X3X3X3X3X3X3X3X3X3X3X3X,XH.y.a.a.q.y.y.y.Q . . ",
". . &.3X3X3X3X3X3X3X3X3X3X3X3X3X3X3X3X3X3X3X3X3X3X3X3X3X3X3X3X3X%Xy.y.y.q.a.a.y.a.Q O . ",
". O O.3X3X3X3X3X3X3X3X3X3X3X3X3X3X3X3X3X3X3X3X3X3X3X3X3X3X3X3X3XE.y.a.y.y.y.y.y.y.Y . . ",
". . ^ 3X3X3X3X3X3X3X3X3X3X3X3X3X3X3X3X3X3X3X3X3X3X3X3X3X3X3X3X=Xz.a.a.y.a.y.y.a.y.C . . ",
". . F 3X3X3X3X3X3X3X3X3X3X3X3X3X3X3X3X3X3X3X3X3X3X3X3X3X3X3X3XQ.q.y.y.q.a.y.y.y.y.j . . ",
"  . w 2X3X3X3X3X3X3X3X3X3X3X3X3X3X3X3X3X3X3X3X3X3X3X3X3X3X3X$Xj.y.y.f.y.a.y.y.y.w.3 .   ",
"  . * ^.3X3X3X3X3X3X3X3X3X3X3X3X3X3X3X3X3X3X3X3X3X3X3X3X3X;XK.y.y.y.y.y.y.y.a.q.>.O .   ",
"  . . ;.3X3X3X3X3X3X3X3X3X3X3X3X3X3X3X3X3X3X3X3X3X3X3X3X<X'.y.a.q.a.y.y.y.a.y.a.E . .   ",
"  . . z 1X3X3X3X3X3X3X3X3X3X3X3X3X3X3X3X3X3X3X3X3X3X3X3X@Xz.y.q.y.y.y.a.y.a.y.y.9 . .   ",
"    . O D.3X3X3X3X3X3X3X3X3X3X3X3X3X3X3X3X3X3X3X3X3X,X%XM.y.y.y.a.y.y.a.q.y.y.X.O .     ",
"    . . V 3X3X3X3X3X3X3X3X3X3X3X3X3X3X3X3X3X3X3X3X,X=XD.y.y.a.y.a.y.y.a.y.a.y.d . .     ",
"      . . f.,X3X3X3X3X3X3X3X3X3X3X3X3X3X3X3X3X3X3X%XZ.y.y.f.y.y.q.y.y.y.y.y.{ . .       ",
"      . . 8 {.3X3X3X3X3X3X3X3X3X3X3X3X3X3X3X2X2X|.b.y.y.y.y.y.y.y.a.a.q.q.3.< . .       ",
"        . . D =X3X3X3X3X3X3X3X3X3X3X3X3X3X3X,XE.a.y.q.y.a.y.y.y.y.a.y.y.e.k . .         ",
"          . . ^ =X3X3X3X3X3X3X3X2X2X3X3X,X).b.y.a.y.a.q.y.y.a.a.y.y.y.e.V . .           ",
"          . . X / =X3X2X3X3X3X3X2X,X[.P.l.y.y.a.y.y.y.a.y.a.y.y.a.y.e.Z . . .           ",
"            . . O N M.K.Y.Y.L.H.B.s.y.w.w.y.y.y.y.a.y.a.y.q.a.y.q.6.v . . .             ",
"              . . . 6 @.y.y.y.y.y.a.y.q.a.y.y.y.y.y.a.y.y.y.y.y. .5 . . .               ",
"                  . . $ m <.y.q.y.y.y.a.y.y.a.a.a.q.a.y.y.y.<.b O O .                   ",
"                    . . . $ v { 7.a.y.y.y.a.y.y.y.y.w.7._ v O . . .                     ",
"                        . . . X ; j J (  .=.=.X./ H f ; . . O .                         ",
"                            . . . . . . . . . . . . . . . .                             ",
"                                  . . . . . . . . . .                                   "
};
