/* XPM */
static char *cbfaac559ea6415ce82f1c8b69744762CwpbMzdtcYY7Fr7Q[] = {
/* columns rows colors chars-per-pixel */
"50 50 235 2 ",
"   c #1C1912",
".  c #29150A",
"X  c #231A15",
"o  c #242015",
"O  c #2A2118",
"+  c #2E2118",
"@  c #352214",
"#  c #362315",
"$  c #30261A",
"%  c #30261D",
"&  c #31281F",
"*  c #3E2B1D",
"=  c #3E2D1D",
"-  c #332B20",
";  c #3A2C21",
":  c #3D2F24",
">  c #3E3025",
",  c #3E3226",
"<  c #42270C",
"1  c #42260E",
"2  c #43270F",
"3  c #43280B",
"4  c #43280D",
"5  c #44290C",
"6  c #452A0C",
"7  c #442B0C",
"8  c #452A0D",
"9  c #44290E",
"0  c #46280E",
"q  c #47290F",
"w  c #452A0F",
"e  c #462B0E",
"r  c #472C0F",
"t  c #442810",
"y  c #452911",
"u  c #442A11",
"i  c #462B10",
"p  c #442812",
"a  c #452913",
"s  c #452B12",
"d  c #462A12",
"f  c #472B13",
"g  c #472C11",
"h  c #472E10",
"j  c #462A14",
"k  c #472B15",
"l  c #472D14",
"z  c #492B11",
"x  c #482A12",
"c  c #492B13",
"v  c #4A2F11",
"b  c #482D12",
"n  c #4A2C12",
"m  c #492E13",
"M  c #4A2B16",
"N  c #482C14",
"B  c #492D15",
"V  c #4A2C14",
"C  c #4B2D15",
"Z  c #492F14",
"A  c #482E15",
"S  c #4A2F14",
"D  c #482C16",
"F  c #492D17",
"G  c #4B2C17",
"H  c #492F16",
"J  c #4A2E16",
"K  c #4B2F17",
"L  c #4C2E16",
"P  c #4D2F17",
"I  c #412E1D",
"U  c #442F1E",
"Y  c #4A2E18",
"T  c #4B2F19",
"R  c #4C2D18",
"E  c #4E2F1A",
"W  c #4E2F1B",
"Q  c #4C2F1D",
"!  c #493011",
"~  c #4B3013",
"^  c #4B3015",
"/  c #4B3214",
"(  c #4A3017",
")  c #4F3115",
"_  c #4C3116",
"`  c #4E3016",
"'  c #4F3117",
"]  c #4C3217",
"[  c #4D3217",
"{  c #4E3316",
"}  c #4B3617",
"|  c #4D3415",
" . c #4D3416",
".. c #4C3516",
"X. c #4E3517",
"o. c #4D3617",
"O. c #47321D",
"+. c #47321F",
"@. c #493119",
"#. c #4B3118",
"$. c #4B3319",
"%. c #49301A",
"&. c #4B311A",
"*. c #4B301B",
"=. c #4A311B",
"-. c #48321A",
";. c #49331B",
":. c #4A321A",
">. c #4B331B",
",. c #4C3018",
"<. c #4D3119",
"1. c #4E3018",
"2. c #4F3119",
"3. c #4D3318",
"4. c #4C3219",
"5. c #4E3318",
"6. c #4C301A",
"7. c #4D311B",
"8. c #4F301B",
"9. c #4D331A",
"0. c #4C321B",
"q. c #4E321A",
"w. c #4F331B",
"e. c #493419",
"r. c #4A3518",
"t. c #4C3418",
"y. c #4D3519",
"u. c #4E3419",
"i. c #4F3419",
"p. c #4C341A",
"a. c #4D351B",
"s. c #4E341B",
"d. c #4A311D",
"f. c #49331C",
"g. c #48321D",
"h. c #4B321C",
"j. c #48311F",
"k. c #4A301F",
"l. c #48331E",
"z. c #49331E",
"x. c #4B321E",
"c. c #4C311C",
"v. c #4D311C",
"b. c #4F301C",
"n. c #4D331C",
"m. c #4D321D",
"M. c #4C331D",
"N. c #4E321C",
"B. c #4E321D",
"V. c #4F331D",
"C. c #4D301E",
"Z. c #4C311E",
"A. c #4F301E",
"S. c #4E311F",
"D. c #4D321F",
"F. c #4C331F",
"G. c #4E331E",
"H. c #4F331E",
"J. c #48341C",
"K. c #4A341C",
"L. c #4A341D",
"P. c #4B351E",
"I. c #4A341F",
"U. c #4C341C",
"Y. c #4D351D",
"T. c #4F351C",
"R. c #4E341D",
"E. c #4D341E",
"W. c #4F351E",
"Q. c #4F341F",
"!. c #4E351F",
"~. c #4E361E",
"^. c #503218",
"/. c #513319",
"(. c #50321A",
"). c #51331B",
"_. c #50351A",
"`. c #52341A",
"'. c #51361B",
"]. c #50311C",
"[. c #50311D",
"{. c #51321D",
"}. c #50311F",
"|. c #51321E",
" X c #52331F",
".X c #50341C",
"XX c #51351D",
"oX c #52341C",
"OX c #50341E",
"+X c #51351F",
"@X c #442E20",
"#X c #452F21",
"$X c #4F2F20",
"%X c #4E2E21",
"&X c #443321",
"*X c #443122",
"=X c #453424",
"-X c #473527",
";X c #483121",
":X c #4B3120",
">X c #493220",
",X c #483320",
"<X c #4A3321",
"1X c #493222",
"2X c #483322",
"3X c #4A3323",
"4X c #4C3120",
"5X c #4C3221",
"6X c #4D3221",
"7X c #4F3220",
"8X c #4E3320",
"9X c #4D3123",
"0X c #4D3322",
"qX c #4C3223",
"wX c #4E3322",
"eX c #4B3520",
"rX c #493423",
"tX c #4A3522",
"yX c #4B3623",
"uX c #4D3420",
"iX c #4F3421",
"pX c #4E3521",
"aX c #4C3523",
"sX c #4D3324",
"dX c #4C3126",
"fX c #4F3327",
"gX c #493625",
"hX c #443228",
"jX c #4B3528",
"kX c #503021",
"lX c #513220",
"zX c #523321",
"xX c #513520",
"cX c #523620",
"vX c #503522",
/* pixels */
". @ @XtXtXK.P.P.Z.XX6X6X6XuXP.uXZ.Z.Z.K.Z.;.3.Z.P.P.P.Z.P.P.Z.P.xXP.P.P.3.Z.P.Z.Z.Z.Z.Z.Z.Q 1X#X% X ",
"@ * rXtXP.K.P.XXXXZ.6XZ.aXuX6XXXP.XXXXP.uXXXuXuXP.XXxXuXP.{.{.P.Z.P.Z.Z.f.3.Z.P.Z.P.Z.K.1X6Xf.1X, - ",
"*XtXaXuXK.K._.i.3.Z.uX{.kXP.{.P.P.i.P.P.P.P.P.P.Z.i.P.P.P.P.i.K.Z.3.3.Z.Z.Q Z.Z.3.Q Z.Z.{.6X6XaXrXhX",
"1XtXtX;.] i.3.] m } Z.Z.xXP.P.{.3.K.Z.i.i.Z.3.3.3.K.P.3.XXP.i.P.f.3.Z.3.Z.3.Z.Z.Q 3.Z.P.P.uXkXuXfXfX",
"*XJ.e.r...} / r y D ] 3.Z./.XXZ.P._._.i.P._.i.P./.P.i._.i._.i.3.E E } D 3.Q 3.Z.Z.3.{.Z.XX{.XXkX$X%X",
"f.J.K.K.i...! r 4 z P 3.3.3._.3.P.XXP.i.i.XXXXP.XX_.P.] ;.D } D } E E E Q /.Q Q {.{.P.{.XXZ.Z.{.b.6X",
"f.f.i.i...| ! 7 0 z E /.{./.3././._._.i.i.i.i.i.i.] ] m m g t 9 V D D ] 3.E E 3.Z.{.XX3.3./.3.Z.Z.Z.",
"f.K.K.i.] | / r q V P /.Q /.3./._.] ^.i.i.i.i.i._.i.D m 9 9 9 y z m D D E 3.3.3.3.3.3.{.{.P.{.3.Z.K.",
"f.f.Z.i.^.] ^.^./.b.8.{.{.{././.i.i.i.i._._._._._.] m 3 9 g 9 g z V D P P /.P ^.^.`.`.^.^.{./.3.K.tX",
"Z.Z.P.K.P.3.^./.E E E {.{.{.b.8.i.i.i.i./.3.3.3._.] m 9 z 9 9 9 z m P E ^.8././.^.^.^.] P 3./.3.K.K.",
"f.f.Z.i./.3.3.{.Q {.b.kXzXzX{.Z.i.i.i._.i.i./.i.] ] m 9 g r y m y D T 3.3.3./.3./.] m m m m ] 3.Z.1X",
"Z.f.i.K.P._.Z.Z.{.{.kXkX{.{.Z.3.3.i.i.i._._._.3.] ^.m 9 m m 9 m y D E 3./.Z.3./.] m 9 9 9 0 y E uX1X",
"f.f.i.K.P._./.3.kXZ.Q Q Q Z.3.3.E 3.3./._.3.Z.E E 3.D m D D m P D D 3./.Z././._.] m 9 q r 9 m 3.xXdX",
";.;.;.i._.] Z.3.Z.XXb.Z.{.{.Z./.3.Z.Z.{.{._./.3.D /.] D ] D D ] T E 3.{._._.Z.Z.] m 9 q 9 9 r 3.Z.dX",
";.} } } ....i.K.XXZ.XXP.P.Z.3.] ;.3._.XXP._.i.Z.3.i.P D ] ;.} 3.{.3.P.{./.3.{.i.3.D r 9 9 9 m 3.P.tX",
"} ;.;...i.i.i.i.3.{.Z.{.3.E D y y m D ;.3.Z.3.3.;.3.;.E 3.3.P Z.P.{.{.{.3.Z./.XX_.D m 9 9 m D Z.uX1X",
"f.3.i._.i.{.3.{.E {.XXZ.T k k y 9 9 z D 3.3.E 3.3.Q Z.3.Q Z.{.Z.Z._././.Z._./.Z./.Z./.3.{.3.Q 3.6X1X",
"Z.;.P.Z.{.P.{.Z./.{.XXZ.T k k k y y y m E 3.E D Q 3.3.Z./.{.XXXX/._.Z._.Z./._.Z.3.3.{.3.3.3./.Z.6X1X",
"i.K.i.P.P.{.3.{.Q {.3.E k k k y V y y D D ] 3.D Z.E {.Z.XX{.Z.XX/.Z._.Z._._././.{.3.3.Z.Z./.3./.1Xf.",
"P.K.XXZ.XXZ.Q /.{.{.Z.Q D k k y y y y m D E 3.E 3.Z.3.{.Z.P.{.XX_.Z./././.Z.Z._.Z.{.3./.3./.Z.P.Z.1X",
"3.i.P.Z.{.Z.3.Z.{.{.{.Z.E k k p y y m D 3.E T T Z./.Z./.XXXXXXP./.Z._._._.Z.Z././.3./.Z./.3.3.Z.Z.1X",
"Z.K.P.i._.Z.Z.3.{.{.{.XXZ.T k k y D D E E 3.3.E 3.3._._.XXkX{.{._.Z./.Z././._._.Z.{._.Z.Z.3.3.Z.Z.6X",
";.3.3.Z./.Z./.Z.{.{.P.{./.3.T T } D 3.3.3.3.3.3.E 3./.Z./.Z.P./._./.Z./.Z._.{.Z._._./././.3.Z.i.Z.Z.",
";.Z.3.P.Z.{.Z./.{.{.P.{.Z.{.Z.3.E E 3.E E D 3.E 3.E 3.Z./.{.3.3.Z./._._.Z./.3._./.Z.Z._.{.i./.Z.P.Z.",
"3.f.P.{.XXZ./.Z.8.b.{.{.Z.{.P.{.E {.Z.3.E 3.{.3.E 3.3.{._.] /.] /.Z._._./.3._.{.Z.{.{./.Z.XXXX{.3.Z.",
";.Z.;.Z.3.Z.{.3.{.b.3.Z._.Z.{.XX3.3./.] 3.{.3.3.{.3.P ] } P ] _.{.Z./.Z./.Z.Z./._.3.3.Z._.{.3.P.Z.Z.",
"3.K.;.i.{.Z.Z.3.b.{.Z./.Z./.Z.Z.3.3.E T E Z.i.3.D m 9 y 9 z m ] 3.3.{./.3.{.3././.3.E 3.XX_.{.3.6X6X",
"Z.i.Z.XXZ.{.3.Z.E E 3.Z./.Z.Z././.Z.{.3.3._./.] 9 9 9 9 9 9 9 9 T 3.i.Z.Z./.{.P.{.Z.} E 3.{._.P.P.6X",
"K.i.XXP.{.E T k G G E Z.Z.{.{.Z.E 3./.{.{._.] m 9 9 9 m r r 7 9 V E 3.3.Z.3.{.3._.3.k y P 3.Z.Z.Z.tX",
";.;.Z.{.3.T k p M G T T 3.3.Z.3.3.Z.{.3.Z.{.m 9 9 r 9 9 9 r 9 7 y ] {.3.3./.Z./.P y t 1 y 3./.XXP.1X",
"} T 3.P.T T k p V G E Z.{.Z.Z.{.3.Q 3.Z./.3.m 9 m 9 9 9 3 3 7 3 y D Z.3.3.{.Z.3.] D 1 1 k D P.XX6X1X",
";.;.Z.Z.3.D k y M V } 3.{.XX{.Z././.3.3.3.] m 9 9 9 9 q 0 9 7 9 9 D /.E 3./.{.3./.D y y V 3./.Z.Q 1X",
"3.f.3.3.E ] P D ^.P ] { _.3.{.i./.Z._.Z./.{.D y 9 9 9 y 9 9 9 9 9 m /.i.] ] /.Z._.3.E Z./.Z._.3.6X1X",
"T f.3.T 3.3.} P ) ) ^.] /.i._.Z.3.Z./.3.Z.i.] y m 9 r m m 9 9 9 9 m ] i./.3.3.{.Z./.3.3.3.{.XXZ.Z.*X",
";.;.T ;.3.E ] ] ^.^.] ] /._./.Z.{.i.Z.3._./.3.D 9 m 9 m 9 m 9 9 9 m ] ] 3.3.3.i./._.3./.{././.P.%X+.",
"D ;.E 3.3.3.^.i.^.) ] ^.i._.XX_.{.3././.XXXXZ.P m 9 9 9 9 9 m r ] ] ] ] 3.3.{.{.XXZ./.Z._.P.XX{.f.f.",
";.;.;.3.3.Q /.] ^.^.^.] _._.3.{.XX3.3._.XX/.3./.P D m 9 r m n ] _.] m ] n ] _._.{.3./.Z.3.Z._.XXZ.1X",
"T 3.E f.3./.] /.^.) ] } ] i.Z.i.{._.{.Z.{.P.{.Z.XX_.] P m ] ] _.{ n m m 9 m D Z.Z.{.3.{.{.XX/.P.f.+.",
";.;.3.3.Z.Q /.] /.P D m y T /.XXXXZ.Z.XX_.{.Z./._.Z._.Z.] _./._.] z 9 9 9 9 m E _.3.3.3.P.{.{.P.Z.tX",
"T f.Q Z./.3.] ] `.P 9 < p V 3.i.XXZ./.Z.XX3.3./.3.E 3./._.] ] ] m 9 9 9 9 9 z 3.Z./.E 3./.3.{.3.K.K.",
"T 3.P.3.E 3.{.3.^.q p y y y D _.Z.XX{.{.P.{.Z._.Z././._./._._.Z.9 4 4 g y 9 t y P ] 3.Z./.Z./.Z.Z.K.",
"f.P.Z.Z.3./.P.i.^.n 0 1 p y 3.XX{./.P.{.P.{././._._.Z.Z.Z.Z././.m 9 4 9 g y z 3.D E E 3.3.{.i.XXZ.K.",
"T Z.XXi.Z.{.{.{.`.P y y y V E xX{.P.{.P./.XXZ.P./.Z._./._./.Z._.D r 4 4 9 9 D 3.3.3.Q 3.{.3.Z.XXP.Z.",
";.f.Z.Z.3.Z.3.Z.`./.P T 3.3.Z.XX{.P.{.{.{.Z.XX{./._.Z./._.Z./._.] m r r y m D {./.3.3.E 3.3./.P.P.uX",
"Q P.{.Z.Z./.3.3././.3.{.{.XXZ./.XX{.Z._.{.P.P.{.Z.XX/.Z././.Z.Z._...] /.3.3.3./.3./.Z.3.E 3./.Z.P.P.",
";.Z.{.P.Z.{.{.3.{./.Z.3.Z._.{.Z.Z.XXXXZ.{.{.{.{.XXZ./._.P.{._./._._._._.i.i.3.Z.{.Z./.3.3.Z./.Z.Z.tX",
";.K.xXZ.{.XXZ././.{.3.{.P.{.P./.XXZ.XX{.P./.{.P.XXZ.Z._.i.3.{./.3.3._./.i.i.3.E 3.{.3.{.3./.3.Z.1Xf.",
"U 1X6XP.P.XX_._.Z.XX{.xXxXXX{.Z.{.P.Z.P.XXZ.i.P.{.XXZ.{.{.{.P./.3.i.3.i.i.i.Z.3./.P.{.Z.{.Z.3.;.rXrX",
"X @XjXrXK.uXP.i.P.{.6XkXxXuX{.Z.Z.K.K.uXuXuXP.Z.XXZ.Z.{.Z.P.Z.P.{.Z.Z.i.P.XXP.P.Z.i.P.{.6XxXuXU , - ",
"X % , &XJ.K.P.i.XXZ.6XuXaXuX{.Z.K.K.K.K.K.K.Z.P.uXP.Z.Z.6X{.Z.Z.Z.3.;.3.;.f.;.;.T 3.{.Z.6XuX1X= X   "
};
