/* XPM */
static char *b3447b19140647eccf5ad4044e250582dM89aru8PMLlS261[] = {
/* columns rows colors chars-per-pixel */
"41 50 167 2 ",
"   c None",
".  c #050505",
"X  c #0D0A09",
"o  c #120C0A",
"O  c #1D0B0B",
"+  c #15120E",
"@  c #1C140C",
"#  c #0F161C",
"$  c #141312",
"%  c #1D1914",
"&  c #11161A",
"*  c #15181B",
"=  c #1B1C1C",
"-  c #240C0C",
";  c #2C0E0E",
":  c #310F0F",
">  c #25170D",
",  c #2D130E",
"<  c #251A0E",
"1  c #2D1B0F",
"2  c #32100F",
"3  c #301A0F",
"4  c #271010",
"5  c #2D1111",
"6  c #221D15",
"7  c #2A1F12",
"8  c #231E19",
"9  c #341313",
"0  c #3B1515",
"q  c #311C10",
"w  c #3F1919",
"e  c #252112",
"r  c #2C2012",
"t  c #2D2917",
"y  c #262019",
"u  c #292219",
"i  c #2D2C1C",
"p  c #342413",
"a  c #3C2614",
"s  c #3C2A16",
"d  c #332D18",
"f  c #3A311B",
"g  c #141B22",
"h  c #141F28",
"j  c #182023",
"k  c #17242F",
"l  c #1B242C",
"z  c #192632",
"x  c #1B2936",
"c  c #1D2C3B",
"v  c #1F303F",
"b  c #232323",
"n  c #292520",
"m  c #2B2D21",
"M  c #25282A",
"N  c #292A2A",
"B  c #352C21",
"V  c #392F23",
"C  c #302E2C",
"Z  c #373027",
"A  c #3E3326",
"S  c #3F3D25",
"D  c #303328",
"F  c #3B3E2F",
"G  c #232D36",
"H  c #292D30",
"J  c #202F3E",
"K  c #22313F",
"L  c #2C393F",
"P  c gray19",
"I  c #431515",
"U  c #4A1616",
"Y  c #4D1817",
"T  c #451919",
"R  c #4C1A1A",
"E  c #541C1C",
"W  c #5B1C1C",
"Q  c #631E1E",
"!  c #681F1F",
"~  c #452C17",
"^  c #442F19",
"/  c #46331C",
"(  c #4A331B",
")  c #51371C",
"_  c #54391D",
"`  c #5B3E1F",
"'  c #572121",
"]  c #5B2121",
"[  c #413323",
"{  c #423C21",
"}  c #413628",
"|  c #632121",
" . c #6C2323",
".. c #742625",
"X. c #7C2625",
"o. c #742827",
"O. c #7B2827",
"+. c #762929",
"@. c #7F2C2B",
"#. c #7C2A2A",
"$. c #424129",
"%. c #5E4121",
"&. c #5E4020",
"*. c #414537",
"=. c #624322",
"-. c #644522",
";. c #664623",
":. c #654522",
">. c #684723",
",. c #6B4925",
"<. c #6D4B25",
"1. c #6D4B25",
"2. c #714E27",
"3. c #7F582D",
"4. c #605A32",
"5. c #223445",
"6. c #233546",
"7. c #223444",
"8. c #243749",
"9. c #243648",
"0. c #26394C",
"q. c #283B4D",
"w. c #273C50",
"e. c #293E52",
"r. c #293E52",
"t. c #2B4257",
"y. c #2D445B",
"u. c #2D455C",
"i. c #2F4961",
"p. c #324D66",
"a. c #324D66",
"s. c #334F69",
"d. c #35526D",
"f. c #365572",
"g. c #385672",
"h. c #3A5976",
"j. c #375878",
"k. c #3C5D7C",
"l. c #3F607F",
"z. c #474746",
"x. c #494847",
"c. c gray32",
"v. c #626262",
"b. c gray43",
"n. c #747474",
"m. c #812726",
"M. c #822726",
"N. c #812726",
"B. c #832827",
"V. c #832928",
"C. c #842A29",
"Z. c #832C2B",
"A. c #852C2B",
"S. c #822C2C",
"D. c #862E2D",
"F. c #802C2C",
"G. c #882E2D",
"H. c #80582B",
"J. c #815A2E",
"K. c #8C6030",
"L. c #916331",
"P. c #3C5F81",
"I. c #3D6285",
"U. c #3E6589",
"Y. c #406282",
"T. c #828282",
"R. c #969696",
/* pixels */
"                                        T 5                                       ",
"                                      4 V.]                                       ",
"                                    - R m.O.; -                                   ",
"                                4 | W E C.A.; X.' O                               ",
"                              . Z.V.I 0 ' ' - ..m.0                               ",
"                          o 0 - A.X.I ;  .' ; ! V.I w T 5                         ",
"                          Z.X.; @.Q 0 Q Q  .R I ..w E m.+.                        ",
"                      o O A.X.: T |  .w 1 : W  .E - W m.F.O o                     ",
"                  5 W E 9 C.X.9 E E , ` ,.-.5 U Q : E m.+.; Q  .O                 ",
"                  o.B.Y ; E I Y 9 a 2.s & 6 &.( 2 Q ] E R ; Q A.4 O o             ",
"              o O G.m.U ;  .Y , -.` % k 6.c * s -.7 U ! @.- W A.; I A.R           ",
"          w  .W ; A.W 0 T 2 ~ 2.p g v 9.6.6.8.z 6 &.~ : W  .Y R - 0 O.E           ",
"        . o.B.W - Y W Y 5 ,.( = z 8.c g 1.^ z 9.7.g s -.q I Q  .0 2 M.W - o       ",
"      9 O ..B.W O | ; ( ,.r h 6.y.r.u a -.~ ) x u.r.z % &.( ; W  .E Y 9 - E ]     ",
"  9 O.Q - E Y I ; q 1.^ * c r.i.s.r.[ ( J.) J.z a.a.y.7.g s >.q I Q Q  .O I V.w   ",
"  W B.E O | W ; _ =.6 k 0.u.s.s.s.y.d a L._ -.x a.a.a.a.r.z 6 ` ) ; E ..9 I V.]   ",
"  O.N.0 0 I q 2.p g v t.a.s.p.p.a.i.8 q L._ ( K p.p.p.p.p.u.6.g s -.q I  .E E @.  ",
"5 Q I E , &.` * x w.a.s.a.p.p.p.a.i.* < L._ < 0.p.p.p.p.p.p.a.t.x % &.) ; E  .Y O ",
"- ' 2 ~ 1.q & 8.u.a.a.a.a.a.a.a.a.s.0.= K.) x u.p.p.p.p.a.a.p.p.u.9.g p >.q I +.9 ",
"  0 a ) +   J p.s.d.s.0.B Z Z Z Z Z V 7 3.( V Z Z Z Z Z V V G p.a.a.t.# @ ` > T   ",
"            6.d.k.h.p.b } } } } } } } u ` a } } } } A } } } 8 u.f.f.d.k           ",
"            r.k.k.k.d.M A A Z A V V V 6 ` p V Z V V V V V A B u.k.I.k.z           ",
"            r.k.l.k.h.M A u o $ $ $ $ @ _ p + $ $ $ $ $ + A B a.U.I.U.x           ",
"            r.k.l.l.I.M A u           o ~ <             + A d d.U.I.U.x           ",
"            r.k.l.l.Y.H } u             6 @             $ A B j.U.U.I.x           ",
"            r.l.l.Y.Y.N A u                             + A B k.U.I.U.x           ",
"            q.k.l.l.Y.N } u                             + Z B k.U.I.U.x           ",
"            q.l.l.l.Y.M A u                             + Z B j.U.I.I.x           ",
"            r.k.k.l.l.M } u                             + A B f.I.P.I.x           ",
"            q.k.k.l.k.M A u                             + A B f.I.I.P.x           ",
"            0.h.k.k.h.M [ u                             $ A B d.I.k.P.x           ",
"            q.h.h.k.g.M A u                             + Z B s.P.k.k.x           ",
"            q.h.h.h.d.M } u                             + Z B s.k.k.j.x           ",
"            8.g.g.h.d.n A u                             + A B i.j.j.j.x           ",
"            6.g.g.g.d.M } u                             + A Z i.f.j.j.x           ",
"            6.d.g.g.s.M A u                             + A B i.f.f.f.z           ",
"            7.d.d.f.a.b A u                             $ A B u.f.d.d.z           ",
"            7.d.d.d.a.b } u                             + A B u.d.d.d.z           ",
"            7.d.d.s.a.b A u                             + A B y.d.s.s.k           ",
"            K a.a.a.u.b } u                             + A B t.s.s.s.k           ",
"            c p.a.a.u.b A u                             + A B r.a.a.a.j           ",
"            G p.a.a.y.b Z u                             + A B w.a.a.a.j           ",
"          t 9.s.a.a.r.= 6 @                             X y e 8.i.d.a.*.6         ",
"          t $.F D m m % 6 +                             X % % i i S $.4.e         ",
"          y f d e e e + + o $                           X + + r t d { { %         ",
"          u / s r r r + + o c.n.n.n.n.n.n.n.n.n.n.n.n.n.b @ + < e r / ( n         ",
"          u ( s r r r D x.x.T.R.R.R.R.R.R.R.R.R.R.R.R.R.b.v.c.< r r / ( u         ",
"          6 r < @ > @ n.R.R.R.R.R.R.R.R.R.R.R.R.R.R.R.R.R.R.R.@ 1 e / / m         ",
"                    P b.T.T.T.T.T.T.T.T.T.T.T.T.T.T.T.T.T.T.T.* b b b b           ",
"                      N N N M M M n M n b 8 b g b 8 = = = = =                     "
};
