/* XPM */
static char *_370391f2d784a90db7e1e26d36e12233yD70NvE5A9bgNaK[] = {
/* columns rows colors chars-per-pixel */
"50 50 233 2 ",
"   c None",
".  c #171514",
"X  c #281D19",
"o  c #361D16",
"O  c #2E190F",
"+  c #29221E",
"@  c #36241E",
"#  c #2A2524",
"$  c #3D2B24",
"%  c #342E2B",
"&  c #322623",
"*  c #3C3A39",
"=  c #373737",
"-  c #33302F",
";  c #571515",
":  c #421E11",
">  c #6C1B1B",
",  c #651A1A",
"<  c #761818",
"1  c #4A2918",
"2  c #562B16",
"3  c #4F2915",
"4  c #65381C",
"5  c #733A15",
"6  c #71221F",
"7  c #491B21",
"8  c #6B1820",
"9  c #422D26",
"0  c #45372E",
"q  c #593628",
"w  c #4B3C34",
"e  c #443A34",
"r  c #513E36",
"t  c #752825",
"y  c #683A24",
"u  c #733927",
"i  c #663332",
"p  c #78411A",
"a  c #48413D",
"s  c #52433C",
"d  c #6C4428",
"f  c #7D4926",
"g  c #69473B",
"h  c #794F36",
"j  c #474543",
"k  c #544D4A",
"l  c #574B48",
"z  c #565554",
"x  c #50504C",
"c  c #65574C",
"v  c #78574B",
"b  c #675957",
"n  c #734442",
"m  c #68625B",
"M  c #76665B",
"N  c #686866",
"B  c #766B65",
"V  c #7B746E",
"C  c #7C7977",
"Z  c #891C1C",
"A  c #9F1515",
"S  c #A61A18",
"D  c #B31D1E",
"F  c #8B251D",
"G  c #95241D",
"H  c #B9241F",
"J  c #921721",
"K  c #B71F24",
"L  c #862526",
"P  c #972724",
"I  c #833926",
"U  c #A62828",
"Y  c #B42726",
"T  c #B23635",
"R  c #DE2D1E",
"E  c #C2241C",
"W  c #E42E1D",
"Q  c #C72A26",
"!  c #D32C23",
"~  c #DC2B21",
"^  c #D42B2A",
"/  c #D82727",
"(  c #DB3325",
")  c #C63731",
"_  c #D63636",
"`  c #E32D24",
"'  c #E72F27",
"]  c #E53324",
"[  c #E93224",
"{  c #E6372B",
"}  c #E73934",
"|  c #A45A1A",
" . c #B3671C",
".. c #A6641E",
"X. c #884B27",
"o. c #85542D",
"O. c #8C4837",
"+. c #885734",
"@. c #945C32",
"#. c #965733",
"$. c #965129",
"%. c #A05820",
"&. c #9D6234",
"*. c #9C622D",
"=. c #BA772D",
"-. c #A86B39",
";. c #BA6B39",
":. c #BA7638",
">. c #A97132",
",. c #904F1E",
"<. c #DA423B",
"1. c #ED4338",
"2. c #D47A2C",
"3. c #C87C36",
"4. c #D27C31",
"5. c #C5762D",
"6. c #8F5E44",
"7. c #884442",
"8. c #886553",
"9. c #976A58",
"0. c #96734A",
"q. c #AA7D48",
"w. c #AE7443",
"e. c #806A63",
"r. c #96786B",
"t. c #8B7B73",
"y. c #9A7E78",
"u. c #857067",
"i. c #AB7B70",
"p. c #D1514C",
"a. c #E35049",
"s. c #C77541",
"d. c #E76058",
"f. c #FAAD1D",
"g. c #F3AA1E",
"h. c #C88537",
"j. c #D58A3B",
"k. c #D7963B",
"l. c #CB802F",
"z. c #E7983A",
"x. c #F5AA25",
"c. c #EAA63B",
"v. c #F3A83A",
"b. c #F2B63A",
"n. c #BC8544",
"m. c #B19151",
"M. c #97887B",
"N. c #A98A7D",
"B. c #CC8B46",
"V. c #D88E46",
"C. c #D39C47",
"Z. c #D49756",
"A. c #E39646",
"S. c #E99B4F",
"D. c #E9A348",
"F. c #F4A548",
"G. c #E6AD55",
"H. c #EEB453",
"J. c #DAB060",
"K. c #ECB762",
"L. c #898784",
"P. c #968C89",
"I. c #979188",
"U. c #9B9693",
"Y. c #999796",
"T. c #A78A86",
"R. c #A9938C",
"E. c #A5958A",
"W. c #A69B98",
"Q. c #B4958B",
"!. c #AAA19A",
"~. c #BBA392",
"^. c #B6A496",
"/. c #B5A185",
"(. c #A5A4A3",
"). c #ADADAC",
"_. c #AAA5A3",
"`. c #B6AAA3",
"'. c #B4B1AD",
"]. c #BAB3AD",
"[. c #B5B4B3",
"{. c #BCBCBB",
"}. c #BBB6B7",
"|. c #C99F9A",
" X c #CAAD9C",
".X c #C2AA97",
"XX c #C9B49D",
"oX c #C8AEA1",
"OX c #CAB7A7",
"+X c #D3BDAC",
"@X c #D1B6A5",
"#X c #C8BDB7",
"$X c #D6B9B3",
"%X c #D4C2AE",
"&X c #C2C2BD",
"*X c #CDC4BA",
"=X c #D3C4B3",
"-X c #DBCCBC",
";X c #D7C5BA",
":X c #E3CAB9",
">X c #C9C8C6",
",X c #D1CFCC",
"<X c #DACCC4",
"1X c #DBD5CA",
"2X c #D5D4D3",
"3X c #DBD8D6",
"4X c #E4D6C9",
"5X c #E3DED9",
"6X c #F3DED6",
"7X c #EBE4DD",
"8X c #F5EBDC",
"9X c #F3E7D9",
"0X c #F5E8D7",
"qX c #DEE1E0",
"wX c #E6E6E5",
"eX c #EDEBE6",
"rX c #EDECEC",
"tX c #EBE5E2",
"yX c #F6EDE4",
"uX c #F9EEE3",
"iX c #F4EDEA",
"pX c #F8EFEA",
"aX c #F6F2E4",
"sX c #F9F1E5",
"dX c #F5F3EB",
"fX c #F9F5EC",
"gX c #F5F4F3",
"hX c #F9F6F2",
"jX c #FAF9F5",
"kX c #FBF7F9",
"lX c #FBFBFA",
"zX c #F6F8F8",
"xX c #FAEFF0",
/* pixels */
"                                                                                                    ",
"                                                                                                    ",
"                                                ; ; ; ; ;                                           ",
"                                            t $.p.a.d.d.p.P ,                                       ",
"                                        > Y _ } { ~ ^ ^ ) T T >                                     ",
"                                      L Q ~ R W ] { 1.} ^ A S L                                     ",
"                                    , Y ~ ` W [ [ ' ' } } _ S 8                                     ",
"                                    P ^ / ` [ ] ] { } / ' / Q <                                     ",
"                                  , U K ! R ] [ ! E S H / ~ / <                                     ",
"                                  8 L < F Q ( ] { 1.a.D D / / <                                     ",
"                                  7 i #X.XG ! W ] ] ` ^ A K Y ;                                     ",
"                                - P.iXzXxXO.T / ~ ` / ^ A J 8 R.Y.#                                 ",
"                              = [.kXlXzXkX$Xt Y / Q ! Y J ; y.kXjX{.-                               ",
"                            = &XkXkXlXlXlXlXW.8 P Y S 6 r.tXkXkXzXjX,X-                             ",
"                            {.lXlXlXlXlXlXlXkX#Xv 8 n `.kXlXkXkXzXlXgX>X#                           ",
"                          P.zXzXlXlXlXlXlXlXlXlXlXlXkXlXlXkXkXkXzXjXkXkXY.                          ",
"                        z dXlXzXlXlXlXlXlXlXlXlXlXlXlXlXlXlXlXlXlXjXlXlXjXz                         ",
"                        &XlXjXjXlXlXlXlXlXlXlXlXlXlXlXlXlXlXlXlXlXjXjXlXhX>X.                       ",
"                      N zXhXzXjXjXlXlXlXzXlXzXzXlXzXgXrXlXzXlXlXjXlXjXlXzXgXm                       ",
"                      [.gXhXjXjXlXzXlXlXzXgX&X[.gX2X[.{.'.dXlXlXlXlXjXjXjXjX&X.                     ",
"                    j dXzXfXfXjXhXjXzXlX5X'.rXrXwXlXzXrXrX2XlXlXlXjXjXjXjXfXdX*                     ",
"                    V zXjXfXjXfXhXhXjXzXrX{.Y.L.wXrXY.(.(.wXlXlXjXjXjXjXjXgXfXC                     ",
"                    (.gXjXfXjXfXjXjXhXrXY.,XlXgX).{.gXlXgX(.rXlXjXjXjXjXfXfXdX'..                   ",
"                    ,XdXfXfXfXfXfXjXjX!.qXlXlXlX2X).lXlXzXgXY.jXjXjXjXjXjXfXaX7X.                   ",
"                  X tXdXfXfXfXgXhXhXeX!.lXlXlXzX2X,XzXlXlXzX#X3XjXjXfXjXgXfXfXfX+                   ",
"                b % dXdXfXfXfXfXhXzX&X2XlXlXlXqXx P.U.hXlXlXwX[.gXgXjXjXfXsXsXfX# l                 ",
"              s R.0 yXaXdXfXaXfXeX>X(.2XlXlXzX>X- I.L.gXkXkX}.L.'.{.gXfXfXsXsXfX+ P.s               ",
"            0 E.^.$ 9XdXaXdXaXfX,X3X{.C ,XgXdX3XB V 1XgXzX(.[.zXjXzXfXfXfXfXsXfXo N.R.              ",
"            I.@XXXw -XaXaXfXaXdXjXjXjXdXM.5X%Xm.J.K.m./.tXC gXkXwXU.{.aXfXsXaX4XO ^.$XP.            ",
"          c +X@XOXv !.aXfXaXaXdX>X&XgXgX].v >.H.x.x.b.C.0.e.dX>XL.3XdXaXsXuXyX^.$ OX+X+Xk           ",
"          '.<X+X%XM.M 0XaXaXdXdXdX&XI.2XM.n.b.g.x.g.f.x.c.q.m W.iXaXfXsXsXuX6Xt.c +X$X4XW.          ",
"        N aXsX-X%XXX$ -X0XaXaXsXfXfXrXW.h C.g.f.f.f.g.x.z.o.;XuXyXaXsXsXuX8X<Xe M.*X9XyXtXk         ",
"        !.gXgXaX-X%Xs R.-XaXaXsXsXsXsXfXN.5 h.v.x.f.x.c...s sXpXpXpXaXyXuX4X`.O #X9XsXdXsXL.        ",
"        wXhXfXfXaX=Xt.s OX-XuXsXaXaXsXuX9X8.O.:.v.f.z.,.h E.sXsXpXpXyXpX4X#Xv % 4XaXfXfXhX}.        ",
"      C jXfXfXjXfX5XM + M.OX:XaXaX8XuXuXuX.X6.O.3.j.,.9.8.0XaXaXpXpXuX4X*XE.X   *XhXfXfXhXiX*       ",
"      ).jXjXjXfXfXdXk   % ^.OX-X0XaXuXaXuXuXoXI I O.O.9.6XaXaXaXuXuX4X%XoX&     !.jXjXhXjXjXN       ",
"      3XlXlXjXfXfXrXj     a ^.OX=X4X8XsX8XuXN.L P G F u 6XsXsX8X4X;X@X.Xe #     U.hXjXjXjXjXP.      ",
"    N gXlXjX3XfXfXdXa       s /. XOX%X-X6X6XO.Y <.) ) < $X9X:X=X$X@X~.0 X       P.kXjX,XfXjX&X      ",
"    [.wX3XeX`.3XsXsXj         9 i..XXXXX+X:XO.P G A Z t $X$X+X@X@XT.9           U.hXfXu.xXiX>Xj     ",
"  N wX).).eX7XV <X<Xb       1 6.2 h N..X X@X X9.i.|.i..XOXoX.XQ.g : y           `.tXW.B gX5X_.C     ",
"  z N {.U.dXdX!.l b       1 -.h.h.>.d 0 M R.~.~.~..X~.^.R.e.q 3 X.w.-.X.3       z l & `.yX<XU._.j   ",
"    z rXC fX3XB           h :.j.c.c.G.n.2 o @ w s s 9 1 3 2 #.Z.B...B.:.X.            k *X#XU.z     ",
"    j L.* I.j           o *.5.k.j.l.h.B.G.Z.g         y -.3.h.=.%.K.Z.=.w.y             e V -       ",
"                        d Z.j.h.C.n.q.B. .| -.1       &.A.2.l.B.+.n.;.j.5.6                         ",
"                        d %.h.A.C.>.5 V.F.z.;.4       &. .z.F.D.5 B.K.F.4.u                         ",
"                        4 h.A.v.v.B.,.F.S.2.s.y       p 5.k.c.k.p B.j.5.-.3                         ",
"                          *.l.l.4.-.O.V.2.4.#.        q -.3.3.>.3 +.-.@.q                           ",
"                          3 X.*.o.2 y #.#.t             3 d d 1                                     ",
"                                                                                                    ",
"                                                                                                    "
};
