/* XPM */
static char *_5f52ec3e76e4464bb8b525e01279c95vsZjIoxDSXiVOFSg[] = {
/* columns rows colors chars-per-pixel */
"50 50 189 2 ",
"   c #09161F",
".  c #05161E",
"X  c #011321",
"o  c #061927",
"O  c #0C1A25",
"+  c #0E1C29",
"@  c #121D26",
"#  c #181B20",
"$  c #131E2A",
"%  c #0F1E33",
"&  c #141F31",
"*  c #0F2028",
"=  c #162127",
"-  c #14212C",
";  c #19222C",
":  c #0F2530",
">  c #122333",
",  c #182535",
"<  c #1C2A35",
"1  c #172838",
"2  c #1D2B3A",
"3  c #1C303B",
"4  c #202D3C",
"5  c #22313E",
"6  c #182C47",
"7  c #1F3948",
"8  c #1F3543",
"9  c #233343",
"0  c #283643",
"q  c #253847",
"w  c #2A3A46",
"e  c #253648",
"r  c #273C4F",
"t  c #2C3C4C",
"y  c #353F4B",
"u  c #263D55",
"i  c #2C3E55",
"p  c #263E58",
"a  c #2D3F59",
"s  c #313F5A",
"d  c #2D4155",
"f  c #2D435B",
"g  c #2D495D",
"h  c #2E4B53",
"j  c #324355",
"k  c #364A56",
"l  c #32455D",
"z  c #34495D",
"x  c #3A4A5C",
"c  c #3B455E",
"v  c #3D505F",
"b  c #2D4561",
"n  c #2E4961",
"m  c #344661",
"M  c #394761",
"N  c #354A63",
"B  c #394C64",
"V  c #374768",
"C  c #354D6A",
"Z  c #3A4E69",
"A  c #375066",
"S  c #3C5266",
"D  c #355169",
"F  c #3C526A",
"G  c #3D596D",
"H  c #3F5572",
"J  c #3F5A72",
"K  c #425365",
"L  c #425866",
"P  c #41556D",
"I  c #45596B",
"U  c #4A5C6C",
"Y  c #4B566A",
"T  c #435671",
"R  c #455B73",
"E  c #495D74",
"W  c #425978",
"Q  c #4A5E79",
"!  c #53646E",
"~  c #476076",
"^  c #4C6374",
"/  c #47627C",
"(  c #4C637B",
")  c #4D687C",
"_  c #516575",
"`  c #51657E",
"'  c #546A7D",
"]  c #5C6E7E",
"[  c #5C7379",
"{  c #4D6281",
"}  c #4D6A81",
"|  c #546B83",
" . c #5A6E84",
".. c #576F89",
"X. c #5B6F88",
"o. c #526782",
"O. c #577083",
"+. c #5B7384",
"@. c #577289",
"#. c #5C748B",
"$. c #5D798D",
"%. c #5D7692",
"&. c #5E7C92",
"*. c #647585",
"=. c #647987",
"-. c #6B7A86",
";. c #62768C",
":. c #647C8D",
">. c #6B7E8C",
",. c #737F8B",
"<. c #637791",
"1. c #647D94",
"2. c #697E94",
"3. c #657E99",
"4. c #6B7E99",
"5. c #5F829A",
"6. c #6D818D",
"7. c #72828E",
"8. c #7B858E",
"9. c #658196",
"0. c #6B8294",
"q. c #688897",
"w. c #66829A",
"e. c #6A839A",
"r. c #6C899E",
"t. c #66899C",
"y. c #728493",
"u. c #7E8490",
"i. c #798996",
"p. c #72859B",
"a. c #738A9C",
"s. c #7B8D9C",
"d. c #7C9097",
"f. c #6D86A1",
"g. c #6C89A2",
"h. c #738AA2",
"j. c #7C94A5",
"k. c #828F9A",
"l. c #829099",
"z. c #8495A4",
"x. c #8B97A2",
"c. c #8C9DA3",
"v. c #8D9EAA",
"b. c #8398A9",
"n. c #949CA9",
"m. c #8DA1A2",
"M. c #93A4AE",
"N. c #9CABB4",
"B. c #9DAEBB",
"V. c #9DB0BC",
"C. c #A1AFBA",
"Z. c #AAB9BE",
"A. c #AAB7C1",
"S. c #ABBDC9",
"D. c #A6B4C1",
"F. c #B2BCC5",
"G. c #B5BFC9",
"H. c #B8BCC5",
"J. c #AFC0CA",
"K. c #B5C2CB",
"L. c #B8C6CF",
"P. c #BAC8D3",
"I. c #C0C7D1",
"U. c #C4CDD4",
"Y. c #C4D1D9",
"T. c #CAD6DE",
"R. c #CCD9E2",
"E. c #D2DCE3",
"W. c #D5DFE9",
"Q. c #DBE2E6",
"!. c #DBE4EC",
"~. c #D6E3EB",
"^. c #DFE9F2",
"/. c #E3EAEE",
"(. c #EEECEF",
"). c #ECF0EF",
"_. c #E8EFF5",
"`. c #E7F1F0",
"'. c #ECF4F5",
"]. c #E5F2FA",
"[. c #EBF4FC",
"{. c #EFF8FF",
"}. c #F4F4F4",
"|. c #F9F9F4",
" X c #F5F7F9",
".X c #F4FCFD",
"XX c #FBFEFF",
"oX c #FEFEFF",
"OX c #FCFDFC",
/* pixels */
"@ = q S F D P K P x 9 $ & @ # ; $ $ @ $ ; $ O O > r B Y Y K x w ; @ $ @ @ y x B K K K K K K x t $ @ ",
"- ! 0.6.:.0.e.:.2.a. .t & & $   @ @ $ & O X 1 S :.2.4.3.3.0.p.e.Y & > j -.-.=.r.y.y.4.4.3.e.0.>.K , ",
"z 6.l.K.K.i.e.g.9.w.2.^ t 0 t t w 9 4 9 d S | 1.3.4.e.f.3.1.1.3.4.6 A $.,.M.V.q.1.1.w.e.&.3.w.3.1.r ",
"+.7.Q.|.XX~.#.w.9.w.e.<.s c c t r j j i N ) 3.w.w.w.3.3.3.f.3.3.@.N | y.L.{..XR.t.9.w.w.f.w.3.1.0.F ",
"+.l.XX|.|..Xa.1.5.&.w.1.l l M z l l M N f V } 3.&.3.3.3.f.f.f.&.~ f ) -. XOXoXoXj.e.1.1.w.9.e.3.1.^ ",
"=.7.Q.oX.XR.0.e.g.w.1...f f P ` *.o.X.<.#.` H N ( ..%.1.3.1.@.( l m ' 6.!.OXOX_.a.q.9.3.1.1.3.3.>._ ",
"] y.i.J.S.y.0.1.3.f.e.P s T 1.e.e.&.1.1.<.e.:.E f l V m V Z N f m i R 0.z.T.R.m.1.9.w.t.w.w.w.1.9.^ ",
" .2.9.:.0.e.w.e.e.3.2.V V m %.e.w.3.1.1.1.e.3.( m m s m m m m m s V C #.0.1.:.q.0.9.1.w.&.w.w.1.9.~ ",
"] 2.4.1.e.9.&.f.5.f.{ b m Z Z ;.3.w.w.&.w.9.$.( c l g D | f.2.+.P N f B <.0.e.9.e.e.1.&.f.3.1.e.0.U ",
"+.1.3.3.9.9.w.e.w.1.C m V s m Z ..w.g.1.&.1.@.F f f R 3.3.3.3.4.4.| D f Z ) @.1.#.o.{ Q <.4.w.2.:.^ ",
"#.e.3.w.9.9.e.<.3.F m a V V b C f Z / @.@.' D u b } $.q.p.<.3.f.e.w.| F f N N l M l N a { 1.w.3.q.' ",
"O.e.1.&.1.1.e.3.F V V V P { %.{ o.F f N N l d N n $.0.N.E.D.:.w.3.w.w.| F f f d l l M f ( 3.0.3.1.~ ",
"_ q.e.w.g.9.o.T C f F $.e.%.e.e.e.#.Q l f z f g ] >.M.XX}.OXC.0.w.w.e.&.) N x M l s l l R e.9.3.q.F ",
"3 _ e.&.O.R m m b J 9.1.9.r.3.3.4.e.;.z f N N B 6.7.K.}.OXOXF.>.w.&.g.w.1.N s l l l j l B :.1.0.O.q ",
"* 1 f n n C g b C &.3.3.0.:.0.2.4.e.4.B N f g A $.9.z.[..X'.M.1.9.1.w.w.1.R m B j x x l i B P E 8 o ",
"; o d N p f b V J 1.3.:.a.b.0.y.9.4.2.N B j f g @.q.1.z.Z.c.9.5.9.q.5.w.&.E l l l B x B x l l f + + ",
"+ * R ..E m m b o.&.w.M.).OXE.e.e.1.2.a l m m N C 1.f.&.w.e.9.q.w.3.3.3.2.T f m E <.e.0.@.~ d j $ $ ",
"O z q.1.#.m f m #.h.1.!.OXOXXXm.w.e.*.V m l f f b F #.1.w.e.9.1.3.e.0.e.X.a j E 3.e.1.9.e.:.G d & $ ",
"9 _ $.@.H B s m 1.<.=.R.OX|..Xv.3.9.F f a m N n n n D @.3.1.e.9.<.p.<.X.m d o.a.9.9.5.9.t.e.+.z $ $ ",
"k +.w.#.#.E K u #.h.e.s.^..XP.6.e.| f V R ) ' ( J C b n ) :.+.e.4.<.T M u ( 1.3.5.t.t.9.9.1.1.l $ $ ",
"d 6.9.5.<.` l N } 9.w.r.9.:.0.$.:.V Z @.4.1.1.w.3.3.R f f m F B K s a m V 2.e.3.q.9.5.5.9.9.2.j $ = ",
"= v :.@.<.F l l D 9.t.9.&.f.9.@.F l @.0.e.1.q.9.w.1.3.R u l m l l s M M M 2.e.4.w.9.w.e.t.q.#.f = + ",
"@ > l F g a z z g F @.#.%.} F f f R r.9.1.9.w.5.9.e.e.1.P s Z l M x s s N <.4.<.e.3.0.w.#.{ P i = + ",
"$ & l b B l z l z j j z b f N l l ( 3.1.t.9.&.t.w.9.0.3.o.M s M s l l l i l T ( ` ( W J N n d N - $ ",
"+ , s F Q ( S z l f N l M l V l l R 4.e.3.9.e.3.9.3.e.1.<.V d m Q #.:.' D N l f f m a b l l l f $ - ",
"> i =.1.e.q.e.0.N N f f f Z F m f F 1.e.2.1.e.e.e.3.e.0.#.l l E 2.e.0.3.3.#.) F N m C b g l F f ; O ",
"j 6.-.6.y.e.1.4.' f j A X.#.e.X.l N | 4.e.1.<.1.1.2.e.<.R f F 1.0.3.3.w.e.r.3.+.D p f N A +.h.1.x & ",
"[ N.`./.k.2.3.4.1.f n R 0.1.e.1.F f P +.e.e.e.e.0.e.<.Q g N o.w.3.3.9.w.e.9.e.e.@.F f l 0.0.0.2.>.j ",
"7.}.OX}.~.6.w.5.1.A A $.1.9.1.q.) l f F ` o.+.X. .` F f N | 9.9.w.3.f.w.9.9.9.9.w.g f  .6.6.6.6.0.K ",
"u.oXOX.X!.2.$.t.:.g f @.9.e.&.w.o.V l f m N M z M f d N } w.t.5.3.3.3.w.w.q.r.e.&.N S =.M.].].N.6.L ",
"[ T.`.{.S.$.e.9.1.f l G 1.9.1.9.( N N l M j l j l l S I 3.w.w.1.1.f.e.w.9.e.9.1.G f ] ,..X.XXX`.a.) ",
"=.7.m.d.:.f.9.9.^ z z f ~ :.3.1.( N l l x l l x l j z l @.#.w.w.3.f.w.w.1.#.( D g g ] 8./.OXOX.Xe.) ",
"] 0.:.e.w.&.g.3.Z B f f B B ) ( M B f l P U ( / E Z V l f V N R P I D P B l f N g z ^ y.Z.[..XH.;.U ",
"U 0.0.1.9.w.3./ N f l l N p n N N u B ' *.*.>.:.1.1.;.I m l l l f V V l f f N g n d S 1.2.i.s.7.y.z ",
"w ] a.1.e.<.( V f N ( ( ( J N g V m Q ,.l.U.L.-.1.e.e.<.E m m M V l f N (  .( D f V n D q.9.$.1.0.e ",
"@ 0 L S D M i l f ( 4.3.w.3.} g a m *.,. X X XU.&.1.3.e.o.M s l N l R | e.e.<.@.D C f D F 1.r.$.U > ",
"= $ j l l l l M N #.e.1.e.e.9.N B l -.n.XX X|.Q.9.w.9.e.E m M l f B X.4.e.4.w.e.&.F N f f f E R < * ",
"= O k N z l l l f #.1.9.w.3.e.B c P 4.,.W.XX XH.9.9.9.e.R m l B N F 1.2.e.e.e.1.r.&.A g B V i m . * ",
"@ = k f l m m N f @.9.w.e.9.e.R i Z >.4.k.A.V.0.w.5.9.1.B f u l z P e.4.e.3.e.q.9.1.{ l l l M f > * ",
"@ ; k N Q R Z B l | e.9.9.e.e.R f N ;.>.y.,.:.&.9.1.3.' p N N l l m ;.2.e.1.9.w.4.2.R N B f f A j 1 ",
"# , ) 5.t.1.1.| V F 4.e.1.4.e.I l i U y.0.>.e.3.3.3.+.A l l m m l l N E @.#.#.:.o.E j f m C o.1.0.L ",
"= _ r.:.:.6.6.2.P N X.e.p.4.4.R s l x E ;.<.<.1.#.Q N f V l m m N V f f m n f g B u N B J f.#.w.0.^ ",
"d 6.9.=.K./.U.,.;.s j E ;.2.X.M a l j d B I T T A N m f f f C T P T P F C N f l g C f ' &.1.e.f.9.^ ",
") 0.0.C..XoXOXF. .i f l i a M l M l l j d z m a f f C T ;.e.4.<.e.e.e.e.@.( N l b m o.<.y.6.9.5.9._ ",
"[ 9.6.J..XOXoXP.2.l u f s l s a Y ` ;.#.F d l Z f B X.1.4.<.1.3.3.3.w.e.e.1.P l l ` 2.s.U.Y.z.9.9.^ ",
"+.q.9.a.]..X[.x.*.j i l u s F o.4.e.2.2.3.( l i f D :.e.e.e.f.f.3.e.w.1.9.e.R f Y 2.>.W.XXXX].0.0.^ ",
"v q.$.q.d.M.s.q.+.j j l j R  .h.2.e.9.w.e.$.E l j P 2.2.:.e.3.&.w.w.w.w.1.r.E N ( <.s.[.|.OX[.z.0.^ ",
"< [ q.5.9.0.9.5.' j d l P <.4.2.e.3.e.t.9.e.3.F f z ;.e.3.3.3.e.w.3.w.t.1.1.N j o.$.0.Y.}.OXE.0.:.K ",
"= w [ y.0.q.=.*.4 4 2 ,  .2.2.2.4.e.0.e.9.e.0.U 2 < j *.e.e.1.w.t.1.e.e._ t < < 5 *.h.p.B.N.i.-.*.5 ",
"O O 2 x ^ O.L 9 $ $ $ & ] 2.2.p.4.e.e.0.9.0.>.K ; O = t E 1.e.e.1...I r > o @ @ O e ` 2.-.y.2.Y 9 O "
};
